<?xml version="1.0" encoding="UTF-8"?><svg id="Layer_2" xmlns="http://www.w3.org/2000/svg" viewBox="0 0 669.39 127.04"><defs><style>.cls-1{fill:#1d1d1b;}</style></defs><g id="Layer_1-2"><g><path class="cls-1" d="M397.09,125.99h75.81v-8.42h-66.33v-50.36h56.5v-8.42h-56.5V9.48h66.33V1.05h-75.81V125.99m-23.86-35.45h-9.3c-3.68,17.37-16.32,28.08-33.16,28.08-8.95,0-17.37-3.33-23.69-9.65-8.95-8.95-9.65-18.78-9.65-45.45s.7-36.5,9.65-45.45c6.32-6.32,14.74-9.65,23.69-9.65,16.85,0,29.13,10.7,32.81,28.08h9.65C369.02,14.04,353.23,0,330.77,0c-11.93,0-22.99,4.56-31.23,12.81-11.41,11.41-11.58,22.46-11.58,50.71s.18,39.31,11.58,50.71c8.25,8.25,19.3,12.81,31.23,12.81,22.11,0,38.25-14.04,42.46-36.5M231.27,13.69l26.15,73.52h-52.29L231.27,13.69Zm40.01,112.3h10.18L235.48,1.05h-8.42l-45.97,124.94h10.18l10.88-30.36h58.26l10.88,30.36ZM178.63,37.02c0,18.78-11.93,27.55-29.3,27.55h-35.27V9.48h35.27c17.37,0,29.3,8.77,29.3,27.55m9.48,0c0-22.99-16.14-35.97-37.73-35.97h-45.8V125.99h9.48v-52.99h36.32c21.58,0,37.73-13.16,37.73-35.97m-104.4,55.45c0-10-4.04-18.6-10.88-24.22-5.09-4.39-10.53-6.67-22.29-8.25l-13.51-2.1c-7.02-1.23-14.21-4.04-18.6-7.72-4.39-3.69-6.49-9.12-6.49-16.32,0-15.97,10.7-25.8,28.95-25.8,14.74,0,22.99,4.56,30.36,11.58l6.14-6.14C66.68,4.21,56.85,0,41.41,0,17.37,0,2.63,13.16,2.63,34.22c0,9.83,3.33,17.55,9.83,22.99,5.44,4.74,12.81,7.72,22.29,9.12l14.56,2.28c10.35,1.4,13.34,2.98,18.07,6.67,4.74,4.04,6.84,10,6.84,17.55,0,16.32-12.28,25.79-32.11,25.79-14.91,0-24.22-3.51-35.45-14.74l-6.67,6.67c11.41,11.41,23.16,16.49,41.59,16.49,26.15,0,42.11-13.34,42.11-34.57"/><polyline class="cls-1" points="626.08 52.97 665.27 4.68 643.26 4.68 592.91 67.75 592.57 67.75 592.57 4.68 574 4.68 574 91.64 573.66 91.64 518.32 4.68 500.79 4.68 500.79 127.04 519.35 127.04 519.35 40.08 519.68 40.08 575.03 127.04 592.57 127.04 592.57 94.27 614.23 67.6 647.39 127.04 669.39 127.04 626.08 52.97"/></g></g></svg>